Twenty8K 2012 DVDRIP Xvid AC3-BHRG

File size: 1.57 GiB
Duration: 1h 41mn
Overall bit rate: 2 205 Kbps
Writing application: AVI-Mux GUI 1.17.8.3, Feb 16 201019:42:50

Video
ID: 0
Format: MPEG-4 Visual
Format profile: Advanced Simple@L5
Format settings, BVOP: 2
Format settings, QPel: No
Format settings, GMC: No warppoints
Format settings, Matrix: Default (H.263)
Codec ID: XVID
Codec ID/Hint: XviD
Duration: 1h 41mn
Bit rate: 1 752 Kbps
Width: 720 pixels
Height: 304 pixels
Display aspect ratio: 2.35:1
Frame rate: 25.000 fps
Color space: YUV
Chroma subsampling: 4:2:0
Bit depth: 8 bits
Scan type: Progressive
Compression mode: Lossy
Bits/(Pixel*Frame): 0.320
Stream size: 1.25 GiB (79%)
Writing library: XviD 1.2.1 (UTC 2008-12-04)

Audio
ID: 1
Format: AC-3
Format/Info: Audio Coding 3
Mode extension: CM (complete main)
Format settings, Endianness: Big
Codec ID: 2000
Duration: 1h 41mn
Bit rate mode: Constant
Bit rate: 448 Kbps
Channel(s): 6 channels
Channel positions: Front: L C R, Side: L R, LFE
Sampling rate: 48.0 KHz
Bit depth: 16 bits
Compression mode: Lossy
Stream size: 326 MiB (20%)
Alignment: Aligned on interleaves
Interleave, duration: 64 ms (1.60 video frames)
Interleave, preload duration: 512 ms
Title: VTS_01_1 T80 3_2ch 448Kbps DELAY 0ms_new

imdb:http://www.imdb.com/title/tt1833885/

plot
A teenage boy is gunned down outside a nightclub and a young girl dies in a hit 
and run in two seemingly unrelated deaths. Deeva Jani, returns home to clear her brother Vipon of the shooting and soon discovers a much deeper conspiracy

Source Pal DVD

sample provided 


Poster:

 
http://www.shotpix.com/images/17580416779510435471.jpg


Screenshots:

 
http://www.shotpix.com/images/79406231734732171858.png

 
http://www.shotpix.com/images/39124794928396322072.png

 
http://www.shotpix.com/images/66317543385612604789.png


ENJOY!